<svg xmlns="http://www.w3.org/2000/svg" viewBox="0 0 120 120" width="120" height="120">
  <rect width="120" height="120" rx="24" fill="#000000"/>
  <path d="M48 45 C48 38 54 34 54 34 C51 29 45 28 43 28 C38 27 34 31 31 31 C28 31 24 28 20 28 C15 28 10 31 7 36 C1 47 6 62 12 70 C15 74 18 78 23 78 C28 78 29 75 34 75 C39 75 41 78 45 78 C50 78 53 74 56 70 C59 66 61 61 61 61 C61 61 54 58 54 50 C54 43 59 39 59 39 C56 35 50 34 48 34" transform="scale(0.8) translate(12, 10)" fill="#FFFFFF"/>
  <text x="76" y="68" font-family="Arial, sans-serif" font-weight="bold" font-size="24" fill="#FFFFFF">tv+</text>
</svg>
